<mxfile host="65bd71144e">
    <diagram id="R3Vz8XFpFHR1-KgIP9JI" name="Page-1">
        <mxGraphModel dx="2321" dy="1455" grid="1" gridSize="10" guides="1" tooltips="1" connect="1" arrows="1" fold="1" page="0" pageScale="1" pageWidth="1920" pageHeight="1200" background="none" math="0" shadow="0">
            <root>
                <mxCell id="0"/>
                <mxCell id="1" parent="0"/>
                <mxCell id="2" value="Admin" style="shape=umlActor;verticalLabelPosition=bottom;verticalAlign=top;html=1;rounded=1;" vertex="1" parent="1">
                    <mxGeometry x="320" y="130" width="30" height="60" as="geometry"/>
                </mxCell>
                <mxCell id="3" value="Manage teams" style="ellipse;whiteSpace=wrap;html=1;rounded=1;" vertex="1" parent="1">
                    <mxGeometry x="410" y="90" width="140" height="70" as="geometry"/>
                </mxCell>
                <mxCell id="8" value="Referee&lt;br&gt;" style="shape=umlActor;verticalLabelPosition=bottom;verticalAlign=top;html=1;rounded=1;" vertex="1" parent="1">
                    <mxGeometry x="320" y="460" width="30" height="60" as="geometry"/>
                </mxCell>
                <mxCell id="9" value="Score Keeper" style="shape=umlActor;verticalLabelPosition=bottom;verticalAlign=top;html=1;rounded=1;" vertex="1" parent="1">
                    <mxGeometry x="320" y="300" width="30" height="60" as="geometry"/>
                </mxCell>
                <mxCell id="10" value="Team Captain" style="shape=umlActor;verticalLabelPosition=bottom;verticalAlign=top;html=1;rounded=1;" vertex="1" parent="1">
                    <mxGeometry x="320" y="640" width="30" height="60" as="geometry"/>
                </mxCell>
                <mxCell id="11" value="Player" style="shape=umlActor;verticalLabelPosition=bottom;verticalAlign=top;html=1;rounded=1;" vertex="1" parent="1">
                    <mxGeometry x="320" y="860" width="30" height="60" as="geometry"/>
                </mxCell>
                <mxCell id="12" value="Observer" style="shape=umlActor;verticalLabelPosition=bottom;verticalAlign=top;html=1;rounded=1;" vertex="1" parent="1">
                    <mxGeometry x="320" y="1020" width="30" height="60" as="geometry"/>
                </mxCell>
                <mxCell id="17" value="Manage seasons" style="ellipse;whiteSpace=wrap;html=1;rounded=1;" vertex="1" parent="1">
                    <mxGeometry x="570" y="90" width="140" height="70" as="geometry"/>
                </mxCell>
                <mxCell id="18" value="Manage schedules" style="ellipse;whiteSpace=wrap;html=1;rounded=1;" vertex="1" parent="1">
                    <mxGeometry x="570" y="170" width="140" height="70" as="geometry"/>
                </mxCell>
                <mxCell id="19" value="Manage leagues" style="ellipse;whiteSpace=wrap;html=1;rounded=1;" vertex="1" parent="1">
                    <mxGeometry x="410" y="170" width="140" height="70" as="geometry"/>
                </mxCell>
                <mxCell id="20" value="Manage chat" style="ellipse;whiteSpace=wrap;html=1;rounded=1;" vertex="1" parent="1">
                    <mxGeometry x="740" y="90" width="140" height="70" as="geometry"/>
                </mxCell>
                <mxCell id="21" value="Chat" style="ellipse;whiteSpace=wrap;html=1;rounded=1;" vertex="1" parent="1">
                    <mxGeometry x="740" y="170" width="140" height="70" as="geometry"/>
                </mxCell>
                <mxCell id="25" value="View schedules" style="ellipse;whiteSpace=wrap;html=1;rounded=1;" vertex="1" parent="1">
                    <mxGeometry x="410" y="300" width="140" height="70" as="geometry"/>
                </mxCell>
                <mxCell id="26" value="Score games" style="ellipse;whiteSpace=wrap;html=1;rounded=1;" vertex="1" parent="1">
                    <mxGeometry x="740" y="300" width="140" height="70" as="geometry"/>
                </mxCell>
                <mxCell id="27" value="Chat" style="ellipse;whiteSpace=wrap;html=1;rounded=1;" vertex="1" parent="1">
                    <mxGeometry x="900" y="300" width="140" height="70" as="geometry"/>
                </mxCell>
                <mxCell id="28" value="View schedules" style="ellipse;whiteSpace=wrap;html=1;rounded=1;" vertex="1" parent="1">
                    <mxGeometry x="410" y="470" width="140" height="70" as="geometry"/>
                </mxCell>
                <mxCell id="30" value="Chat" style="ellipse;whiteSpace=wrap;html=1;rounded=1;" vertex="1" parent="1">
                    <mxGeometry x="740" y="470" width="140" height="70" as="geometry"/>
                </mxCell>
                <mxCell id="31" value="View schedules" style="ellipse;whiteSpace=wrap;html=1;rounded=1;" vertex="1" parent="1">
                    <mxGeometry x="400" y="640" width="140" height="70" as="geometry"/>
                </mxCell>
                <mxCell id="32" value="Chat" style="ellipse;whiteSpace=wrap;html=1;rounded=1;" vertex="1" parent="1">
                    <mxGeometry x="740" y="640" width="140" height="70" as="geometry"/>
                </mxCell>
                <mxCell id="35" value="RSVP games" style="ellipse;whiteSpace=wrap;html=1;rounded=1;" vertex="1" parent="1">
                    <mxGeometry x="570" y="470" width="140" height="70" as="geometry"/>
                </mxCell>
                <mxCell id="36" value="RSVP games" style="ellipse;whiteSpace=wrap;html=1;rounded=1;" vertex="1" parent="1">
                    <mxGeometry x="570" y="300" width="140" height="70" as="geometry"/>
                </mxCell>
                <mxCell id="37" value="RSVP games" style="ellipse;whiteSpace=wrap;html=1;rounded=1;" vertex="1" parent="1">
                    <mxGeometry x="570" y="640" width="140" height="70" as="geometry"/>
                </mxCell>
                <mxCell id="38" value="Manage roster" style="ellipse;whiteSpace=wrap;html=1;rounded=1;" vertex="1" parent="1">
                    <mxGeometry x="400" y="725" width="140" height="70" as="geometry"/>
                </mxCell>
                <mxCell id="39" value="Chat" style="ellipse;whiteSpace=wrap;html=1;rounded=1;" vertex="1" parent="1">
                    <mxGeometry x="730" y="860" width="140" height="70" as="geometry"/>
                </mxCell>
                <mxCell id="40" value="View schedules" style="ellipse;whiteSpace=wrap;html=1;rounded=1;" vertex="1" parent="1">
                    <mxGeometry x="400" y="860" width="140" height="70" as="geometry"/>
                </mxCell>
                <mxCell id="41" value="RSVP games" style="ellipse;whiteSpace=wrap;html=1;rounded=1;" vertex="1" parent="1">
                    <mxGeometry x="560" y="860" width="140" height="70" as="geometry"/>
                </mxCell>
                <mxCell id="42" value="View schedules" style="ellipse;whiteSpace=wrap;html=1;rounded=1;" vertex="1" parent="1">
                    <mxGeometry x="400" y="1020" width="140" height="70" as="geometry"/>
                </mxCell>
                <mxCell id="43" value="View live score" style="ellipse;whiteSpace=wrap;html=1;rounded=1;" vertex="1" parent="1">
                    <mxGeometry x="570" y="1020" width="140" height="70" as="geometry"/>
                </mxCell>
            </root>
        </mxGraphModel>
    </diagram>
</mxfile>